# xmcd
#
# Track frame offsets: 
#        150
#        12038
#        50880
#        65325
#        83542
#        112543
#        132217
#        169296
#        197474
#
# Disc length: 3291 seconds
#
# Revision: 0
# Processed by: cddbd v1.4PL0 Copyright (c) Steve Scherf et al.
# Submitted via: ExactAudioCopy v0.90b4
#
DISCID=670cd909
DTITLE=Van Morrison - You're Not A Rented Audience Are You CD2
DYEAR=1992
DGENRE=R&B
TTITLE0=Sticks and Stones
TTITLE1=Crawlin' Kingsnake - Lonely Avenue
TTITLE2=I'll Go Crazy
TTITLE3=Inarticulate Speech of the Heart No 2
TTITLE4=A Town Called Paradise
TTITLE5=Did Ye Get Healed
TTITLE6=It's All In The Game
TTITLE7=Not Feeling It Anymore
TTITLE8=See Me Through - Soldier Of Fortune
EXTD=
EXTT0=
EXTT1=
EXTT2=
EXTT3=
EXTT4=
EXTT5=
EXTT6=
EXTT7=
EXTT8=
PLAYORDER=
